<?xml version="1.0" encoding="UTF-8"?>
<!DOCTYPE svg PUBLIC "-//W3C//DTD SVG 1.1//EN" "http://www.w3.org/Graphics/SVG/1.1/DTD/svg11.dtd">
<!-- Creator: CorelDRAW X7 -->
<svg xmlns="http://www.w3.org/2000/svg" xml:space="preserve" width="200px" height="200px" version="1.1" style="shape-rendering:geometricPrecision; text-rendering:geometricPrecision; image-rendering:optimizeQuality; fill-rule:evenodd; clip-rule:evenodd"
viewBox="0 0 200 200"
 xmlns:xlink="http://www.w3.org/1999/xlink">
 <defs>
  <style type="text/css">
   <![CDATA[
    .fil0 {fill:#DEDADB;fill-opacity:0.101961}
   ]]>
  </style>
 </defs>
 <g id="Layer_x0020_1">
  <metadata id="CorelCorpID_0Corel-Layer"/>
  <path class="fil0" d="M103 56l42 36c2,2 2,5 0,7l-4 5c-1,2 -5,2 -7,0l-42 -36c-2,-1 -2,-5 0,-7l4 -4c2,-3 5,-3 7,-1z"/>
  <path class="fil0" d="M66 59l42 36c2,2 2,5 1,7l-4 5c-2,2 -5,2 -8,0l-41 -35c-3,-2 -3,-5 -1,-8l4 -4c2,-2 5,-3 7,-1z"/>
  <path class="fil0" d="M69 95l42 36c2,2 2,5 1,7l-4 5c-2,2 -5,2 -8,1l-41 -36c-2,-2 -3,-5 -1,-7l4 -5c2,-2 5,-2 7,-1z"/>
 </g>
</svg>
